<?xml version="1.0" standalone="no"?>
<!DOCTYPE svg PUBLIC "-//W3C//DTD SVG 20010904//EN"
 "http://www.w3.org/TR/2001/REC-SVG-20010904/DTD/svg10.dtd">
<svg version="1.0" xmlns="http://www.w3.org/2000/svg"
 width="250.000000pt" height="250.000000pt" viewBox="0 0 250.000000 250.000000"
 preserveAspectRatio="xMidYMid meet">
<metadata>
Created by potrace 1.14, written by Peter Selinger 2001-2017
</metadata>
<g transform="translate(0.000000,250.000000) scale(0.100000,-0.100000)"
fill="#000000" stroke="none">
<path d="M1234 2478 c-52 -9 -126 -26 -164 -37 -57 -18 -68 -24 -63 -39 14
-40 125 -302 128 -302 2 0 41 9 87 20 92 21 130 28 168 29 l26 1 0 175 0 174
-43 -2 c-23 -1 -86 -9 -139 -19z"/>
<path d="M1563 2330 c0 -94 3 -172 6 -174 3 -2 29 -7 56 -10 28 -4 88 -16 134
-27 46 -10 86 -18 87 -16 2 2 33 74 68 160 l65 156 -47 15 c-64 21 -223 53
-303 61 l-66 6 0 -171z"/>
<path d="M790 2323 c-80 -44 -192 -122 -242 -166 l-36 -33 122 -123 122 -122
30 23 c16 12 35 29 43 36 8 7 48 33 91 58 l77 45 -66 159 c-36 88 -68 160 -71
160 -3 0 -34 -17 -70 -37z"/>
<path d="M2110 2357 c0 -2 -29 -74 -64 -159 l-64 -156 84 -52 c47 -28 100 -65
119 -81 l34 -31 121 121 c66 67 120 125 120 129 -1 29 -350 257 -350 229z"/>
<path d="M381 1992 c-36 -40 -115 -151 -142 -197 -12 -22 -33 -59 -46 -82
l-25 -43 24 -9 c13 -5 86 -35 162 -67 89 -36 141 -53 144 -46 6 20 121 189
137 202 8 7 15 17 15 22 0 7 -236 248 -243 248 -1 0 -13 -13 -26 -28z"/>
<path d="M1398 2005 c-2 -1 -23 -5 -48 -8 -99 -13 -292 -78 -331 -113 -8 -8
-19 -14 -23 -14 -19 0 -140 -97 -202 -162 -180 -190 -266 -408 -265 -668 1
-52 3 -105 5 -116 2 -12 7 -37 10 -55 10 -62 15 -79 37 -142 22 -64 100 -220
106 -213 2 2 6 59 8 127 14 436 19 514 36 584 90 362 422 614 789 598 141 -6
303 -60 411 -138 27 -19 51 -35 54 -35 9 0 125 118 125 127 0 11 -142 105
-205 136 -62 30 -162 63 -235 78 -50 10 -264 21 -272 14z"/>
<path d="M1395 1672 c-16 -2 -52 -10 -80 -19 -217 -69 -375 -228 -435 -439
-19 -65 -22 -112 -36 -484 -13 -363 -14 -330 10 -325 12 2 73 14 136 25 63 12
148 27 189 35 101 21 111 19 151 -18 19 -18 91 -82 160 -142 69 -61 130 -114
136 -120 11 -10 118 -104 178 -157 l30 -26 298 -1 c164 -1 298 1 298 4 0 3
-18 71 -41 153 -22 81 -42 154 -44 162 -2 8 -25 89 -50 180 -25 91 -48 176
-51 189 -3 13 -9 31 -13 40 -9 17 -11 23 -11 44 0 24 -17 38 -51 43 -19 2 -52
6 -74 9 -86 11 -349 95 -373 120 -2 2 9 31 24 65 33 70 20 69 166 16 98 -35
245 -69 252 -57 4 8 -76 285 -97 333 -73 171 -248 315 -433 359 -49 11 -182
18 -239 11z"/>
<path d="M96 1474 c-10 -31 -20 -68 -22 -83 -3 -14 -9 -42 -14 -61 -5 -19 -12
-62 -15 -95 -3 -33 -8 -72 -11 -87 -6 -32 -18 -30 191 -30 171 1 161 -1 161
25 1 41 14 122 28 178 8 30 16 61 18 68 2 8 -56 37 -151 77 -84 35 -156 64
-160 64 -4 0 -15 -25 -25 -56z"/>
<path d="M36 928 c4 -43 9 -81 20 -148 10 -60 56 -220 64 -220 6 0 136 52 284
114 l34 14 -18 65 c-18 65 -35 166 -33 200 0 16 -14 17 -177 17 l-178 0 4 -42z"/>
<path d="M435 530 c-22 -10 -91 -39 -152 -65 l-113 -47 20 -38 c20 -40 54
-135 65 -185 4 -16 6 -65 6 -107 0 -43 3 -78 8 -78 4 0 43 9 85 20 126 32 217
88 278 170 49 66 48 79 -26 177 -37 48 -76 107 -87 131 -23 47 -27 48 -84 22z"/>
</g>
</svg>
